HIERARCHY
ROOT Hips
{
	OFFSET 0.000000 0.000000 0.000000
	CHANNELS 6 Xposition Yposition Zposition Zrotation Yrotation Xrotation 
	JOINT LeftUpLeg_virtual
	{
		OFFSET 0.000000 0.000000 0.000000
		CHANNELS 3 Zrotation Yrotation Xrotation
		JOINT LeftUpLeg
		{
			OFFSET 10.205400 -3.823500 0.155100
			CHANNELS 3 Zrotation Yrotation Xrotation
			JOINT LeftLeg
			{
				OFFSET 0.708757 -12.982077 0.567790
				CHANNELS 3 Zrotation Yrotation Xrotation
				JOINT LeftFoot
				{
					OFFSET -0.708756 -10.717838 -2.184338
					CHANNELS 3 Zrotation Yrotation Xrotation
					JOINT LeftToeBase
					{
						OFFSET 0.108149 -7.191104 7.560241
						CHANNELS 3 Zrotation Yrotation Xrotation
						End Site
						{
							OFFSET 0.000000 0.000000 0.000000
						}
					}
				}
			}
		}
	}
	JOINT RightUpLeg_virtual
	{
		OFFSET 0.000000 0.000000 0.000000
		CHANNELS 3 Zrotation Yrotation Xrotation
		JOINT RightUpLeg
		{
			OFFSET -10.205400 -3.823500 0.005500
			CHANNELS 3 Zrotation Yrotation Xrotation
			JOINT RightLeg
			{
				OFFSET -0.708756 -12.982134 0.610632
				CHANNELS 3 Zrotation Yrotation Xrotation
				JOINT RightFoot
				{
					OFFSET 0.708754 -10.717769 -1.945823
					CHANNELS 3 Zrotation Yrotation Xrotation
					JOINT RightToeBase
					{
						OFFSET -0.108140 -7.191069 7.372968
						CHANNELS 3 Zrotation Yrotation Xrotation
						End Site
						{
							OFFSET 0.000000 0.000000 0.000000
						}
					}
				}
			}
		}
	}
	JOINT Spine_virtual
	{
		OFFSET 0.000000 0.000000 0.000000
		CHANNELS 3 Zrotation Yrotation Xrotation
		JOINT Spine
		{
			OFFSET 0.000000 6.876099 0.125700
			CHANNELS 3 Zrotation Yrotation Xrotation
			JOINT Spine1
			{
				OFFSET 0.000000 8.022060 0.146608
				CHANNELS 3 Zrotation Yrotation Xrotation
				JOINT Spine2
				{
					OFFSET 0.000000 9.168068 0.167552
					CHANNELS 3 Zrotation Yrotation Xrotation
					JOINT Neck_virtual
					{
						OFFSET 0.000000 0.000000 0.000000
						CHANNELS 3 Zrotation Yrotation Xrotation
						JOINT Neck
						{
							OFFSET 0.000000 10.314075 0.188496
							CHANNELS 3 Zrotation Yrotation Xrotation
							JOINT Head
							{
								OFFSET 0.000000 7.643700 -2.377400
								CHANNELS 3 Zrotation Yrotation Xrotation
								End Site
								{
									OFFSET 0.000000 0.000000 0.000000
								}
							}
						}
					}
					JOINT LeftShoulder_virtual
					{
						OFFSET 0.000000 0.000000 0.000000
						CHANNELS 3 Zrotation Yrotation Xrotation
						JOINT LeftShoulder
						{
							OFFSET 4.392200 8.824978 0.174984
							CHANNELS 3 Zrotation Yrotation Xrotation
							JOINT LeftArm
							{
								OFFSET 8.771219 -2.981674 -0.026999
								CHANNELS 3 Zrotation Yrotation Xrotation
								JOINT LeftForeArm
								{
									OFFSET 8.512804 0.000000 -0.000000
									CHANNELS 3 Zrotation Yrotation Xrotation
									JOINT LeftHand
									{
										OFFSET 18.484802 0.000000 -0.000000
										CHANNELS 3 Zrotation Yrotation Xrotation
										End Site
										{
											OFFSET 0.000000 0.000000 0.000000
										}
									}
								}
							}
						}
					}
					JOINT RightShoulder_virtual
					{
						OFFSET 0.000000 0.000000 0.000000
						CHANNELS 3 Zrotation Yrotation Xrotation
						JOINT RightShoulder
						{
							OFFSET -4.392200 8.824993 0.141379
							CHANNELS 3 Zrotation Yrotation Xrotation
							JOINT RightArm
							{
								OFFSET -8.771282 -2.981682 -0.094208
								CHANNELS 3 Zrotation Yrotation Xrotation
								JOINT RightForeArm
								{
									OFFSET -8.494598 0.000000 0.000000
									CHANNELS 3 Zrotation Yrotation Xrotation
									JOINT RightHand
									{
										OFFSET -18.483803 0.000000 0.000001
										CHANNELS 3 Zrotation Yrotation Xrotation
										End Site
										{
											OFFSET 0.000000 0.000000 0.000000
										}
									}
								}
							}
						}
					}
				}
			}
		}
	}
}
MOTION
Frames: 4
Frame Time: 0.033333
-1.884887 21.236778 -14.390655 -179.788501 34.655277 179.481170 3.202128 -6.663226 -8.856414 -6.683762 8.045019 -66.701435 20.022945 -5.447605 91.393197 -1.492932 -10.420049 -12.934526 0.000000 0.000000 0.000000 5.880139 -3.721514 -7.338531 -1.628949 -9.302234 -79.089834 4.302015 3.129783 94.258865 -0.291261 3.185302 -0.813754 0.000000 0.000000 0.000000 -0.641281 -1.349199 -8.724265 4.620807 5.705269 -4.129673 -2.222401 -1.177730 13.342882 0.003025 -0.027317 -0.018329 -2.471095 0.326273 16.272369 -3.290537 -7.913675 24.715384 0.000000 0.000000 0.000000 -0.388551 0.449752 12.369615 -6.934599 -7.922435 8.805837 -51.526770 16.535219 9.850027 -65.500292 -88.018011 81.539393 0.000000 0.000000 0.000000 -4.581467 2.062625 11.312305 24.917450 13.535555 1.442132 48.187101 22.339419 8.718628 -171.400879 67.670693 -172.894218 0.000000 0.000000 0.000000 
-1.893705 21.239006 -14.387047 -179.739310 34.732687 179.668427 3.286364 -6.740771 -8.967036 -6.776611 8.089334 -66.753160 20.046445 -5.572837 91.350187 -1.573259 -10.320637 -12.985964 0.000000 0.000000 0.000000 5.921198 -3.801675 -7.617325 -1.581393 -9.272690 -78.895358 4.225210 3.127626 94.102720 -0.217488 3.273431 -0.863921 0.000000 0.000000 0.000000 -0.610301 -1.444466 -9.015853 4.745544 5.941343 -4.197383 -2.248649 -1.256513 13.360481 -0.016167 -0.042322 -0.096403 -2.466138 0.211017 16.307483 -3.782795 -7.391218 25.149479 0.000000 0.000000 0.000000 -0.325431 0.403469 12.345206 -6.532725 -7.679205 8.760904 -50.971506 13.213803 9.290153 -81.094126 -87.863656 96.758092 0.000000 0.000000 0.000000 -4.609638 1.940884 11.454249 25.162444 13.813526 1.758248 47.878298 20.165143 8.127145 -170.707929 67.642437 -172.670584 0.000000 0.000000 0.000000 
-1.894787 21.247351 -14.384996 -179.701621 34.804547 179.675038 3.326318 -6.842844 -8.977210 -6.847644 8.068483 -66.644280 20.091131 -5.708110 91.290990 -1.635055 -10.190839 -13.015054 0.000000 0.000000 0.000000 5.910291 -3.845260 -7.647008 -1.342982 -9.293050 -78.814229 4.214843 3.159558 93.971805 -0.241339 3.260303 -0.801153 0.000000 0.000000 0.000000 -0.643626 -1.525202 -9.080067 4.900112 6.167058 -4.337973 -2.342891 -1.324878 13.295960 -0.006250 -0.027415 -0.066352 -2.580204 0.035403 16.265161 -4.456772 -6.756815 25.621930 0.000000 0.000000 0.000000 -0.374010 0.290980 12.313017 -6.021067 -7.521003 8.720813 -50.173753 8.685946 8.296014 -96.636453 -87.665690 112.018661 0.000000 0.000000 0.000000 -4.580350 1.809703 11.485169 25.538999 14.076073 2.243314 47.507825 17.645020 7.517223 -170.579508 67.779034 -173.005960 0.000000 0.000000 0.000000 
-1.891873 21.260481 -14.382276 -179.705228 34.850057 179.548489 3.328717 -6.925445 -8.922502 -6.901326 8.037596 -66.439477 20.137537 -5.848093 91.197710 -1.696010 -10.071683 -13.023914 0.000000 0.000000 0.000000 5.898231 -3.983529 -7.647089 -1.299627 -9.264262 -78.600362 4.214895 3.070766 93.724921 -0.279054 3.222117 -0.765488 0.000000 0.000000 0.000000 -0.606015 -1.611316 -9.029964 4.812684 6.335811 -4.419729 -2.380397 -1.410001 13.176103 0.018087 -0.027060 -0.040575 -2.689578 0.157839 16.245863 -5.206852 -6.073499 26.125144 0.000000 0.000000 0.000000 -0.503166 0.204575 12.240724 -5.521763 -7.423088 8.621517 -49.231054 3.444902 6.937371 -113.046345 -87.336263 128.118134 0.000000 0.000000 0.000000 -4.628224 1.808769 11.493264 26.060223 14.328967 2.853776 47.181519 15.006368 7.188342 -170.521096 68.025440 -173.415853 0.000000 0.000000 0.000000 
